<svg xmlns="http://www.w3.org/2000/svg" version="1.1" xmlns:xlink="http://www.w3.org/1999/xlink" xmlns:svgjs="http://svgjs.dev/svgjs" width="100%" height="100%" viewBox="0 0 1000 600"><rect width="1000" height="600" x="0" y="0" fill="black"/><g><rect width="333.3333333333333" height="333.3333333333333" rx="13.333333333333334" ry="13.333333333333334" y="229.5222545674319" fill="#ec8b5e" transform="matrix(0.6029908108675747,0,0,0.6029908108675747,0,61.1017356393629)" x="207.30006408691406"/><path d="M263.580659098462 396.8737173543566L263.580659098462 396.8737173543566Q264.62273926692046 401.280227780981 264.62273926692046 408.0686357355106L264.62273926692046 408.0686357355106L264.62273926692046 456.21273951829244Q264.62273926692046 461.2444980459919 262.5385789300035 463.9836802030828L262.5385789300035 463.9836802030828Q260.0375865257031 466.90150467476656 256.1372293237585 469.04521244988115Q252.26664584091273 471.18892022499574 250.71841244777443 471.18892022499574L250.71841244777443 471.18892022499574Q247.05624499862034 471.18892022499574 247.05624499862034 466.6930886410749L247.05624499862034 466.6930886410749L247.05624499862034 367.57637776112387Q247.05624499862034 366.2961078398749 247.68149309969542 365.52199114330574Q248.3067412007705 364.74787444673655 249.22972649283372 364.74787444673655L249.22972649283372 364.74787444673655Q250.80773360507087 364.74787444673655 252.4452881555056 367.874114952112Q254.05306898684154 371.0301291765863 258.2511633797743 381.2722885465782L258.2511633797743 381.2722885465782Q262.6279000872999 392.2587908940405 263.580659098462 396.8737173543566ZM289.33492611893587 444.5116679124586L289.33492611893587 444.5116679124586L247.68149309969542 336.1651041118754Q246.84782896492862 334.17026493225484 246.84782896492862 332.2945206290296L246.84782896492862 332.2945206290296Q246.84782896492862 329.79352822472924 248.81289442545034 327.590273011417L248.81289442545034 327.590273011417Q251.22456567245425 324.64267482063445 255.2142440316953 322.91579911290324Q259.17414867183754 321.18892340517203 261.37740388514976 321.18892340517203L261.37740388514976 321.18892340517203Q263.69975397485723 321.18892340517203 265.009797615205 322.2310035736305Q266.290067536454 323.30285746118784 267.4512425813077 326.1015870564763L267.4512425813077 326.1015870564763L302.82242087069847 421.2583932962851Q304.72793889302255 426.379472981281 304.72793889302255 429.6248083630517L304.72793889302255 429.6248083630517Q304.72793889302255 432.2448956437473 303.4774426908724 435.90706309290147L303.4774426908724 435.90706309290147Q300.9466765674732 442.3084126991464 298.5350053204693 445.9705801483005L298.5350053204693 445.9705801483005Q296.33175010715706 449.42433156376285 293.8307577028568 449.42433156376285L293.8307577028568 449.42433156376285Q292.58026150070657 449.42433156376285 291.5381813322481 448.3822513953044Q290.4961011637896 447.34017122684594 289.33492611893587 444.5116679124586ZM345.2201968674093 395.5041262758112L345.2201968674093 395.5041262758112L323.36628704888 452.3421560354466Q319.8827619143188 460.9467608550038 312.4691058587141 466.0678405399998L312.4691058587141 466.0678405399998Q305.2340921177024 471.18892022499574 301.2741874775602 471.18892022499574L301.2741874775602 471.18892022499574Q298.1181732530859 471.18892022499574 298.1181732530859 468.271095753312L298.1181732530859 468.271095753312Q298.1181732530859 467.0205995511618 299.1602534215444 464.60892830415787L299.1602534215444 464.60892830415787L341.9748614856386 351.1412848185787Q343.88037950796263 347.2707013357329 345.0117808337176 346.73477439195426L345.0117808337176 346.73477439195426Q345.6370289347926 346.4370372009661 346.2622770358678 346.4370372009661L346.2622770358678 346.4370372009661Q348.6739482828717 346.4370372009661 349.29919638394676 350.5160367175036L349.29919638394676 350.5160367175036Q349.9244444850218 354.1782041666577 349.9244444850218 367.4572828847286L349.9244444850218 367.4572828847286Q349.9244444850218 375.73437679419885 349.06100663115626 381.9570840858509Q348.1677950581918 388.17979137750297 345.2201968674093 395.5041262758112ZM377.2567186177329 325.6847549890929L377.2567186177329 325.6847549890929L377.2567186177329 455.58749141721734Q377.2567186177329 460.7383448213121 375.1725582808159 463.2393372256125L375.1725582808159 463.2393372256125Q372.5524710001203 466.36557773098787 367.6695810679148 468.7772489779918Q362.81646485480826 471.18892022499574 359.77954550672916 471.18892022499574L359.77954550672916 471.18892022499574Q356.20669921487155 471.18892022499574 356.20669921487155 466.6930886410749L356.20669921487155 466.6930886410749L356.20669921487155 336.79035221295044Q356.20669921487155 332.383841786326 358.32063327088736 329.79352822472924L358.32063327088736 329.79352822472924Q361.03004170887937 326.54819284295854 365.85338420288724 323.86855812406526Q370.67672669689506 321.18892340517203 373.5945511685788 321.18892340517203L373.5945511685788 321.18892340517203Q377.2567186177329 321.18892340517203 377.2567186177329 325.6847549890929ZM475.74818139660874 373.3227055471949L475.74818139660874 373.3227055471949Q475.74818139660874 365.4624437051081 473.6044736214942 359.567247323543Q471.46076584637956 353.64227722287904 467.94746699271957 350.03965721192253Q464.46394185815836 346.4370372009661 459.22376729676716 344.1742345494563Q453.98359273537596 341.9114318979464 448.47545470209536 341.0777677631796Q442.99709038791366 340.24410362841286 436.1789087142853 340.24410362841286L436.1789087142853 340.24410362841286L411.288079547677 340.24410362841286Q409.9184884691316 340.24410362841286 409.1443717725624 340.1547824711164Q408.34048135689443 340.03568759472114 407.77478069401695 339.46998693184366Q407.2090800311395 338.8745125498674 407.2090800311395 337.8324323814089L407.2090800311395 337.8324323814089Q407.2090800311395 333.336600797488 413.16382385090225 328.4239371461838Q419.118567670665 323.5112734948795 425.192406366823 323.30285746118784L425.192406366823 323.30285746118784L445.0812507248306 322.97534655110087Q449.3686662750598 322.97534655110087 453.23924975790555 323.24331002299016Q457.10983324075136 323.5112734948795 462.6775187122295 324.6129011015356Q468.21543046460886 325.6847549890929 472.830356924925 327.4711781350218Q477.44528338524117 329.25760128095055 482.2983995983478 332.65180525821535Q487.1515158114544 336.04600923548014 490.45639863142276 340.66093569579624Q493.761281451391 345.27586215611234 495.9049892265057 352.2726861443336Q498.0486970016203 359.2992838516536 498.0486970016203 367.874114952112L498.0486970016203 367.874114952112Q498.0486970016203 390.2937254335188 475.74818139660874 405.6569644885067L475.74818139660874 405.6569644885067Q472.50284601483804 407.97931457821414 472.50284601483804 410.4803069825145L472.50284601483804 410.4803069825145Q472.50284601483804 412.3560512857398 474.2892691607668 415.09523344283065L474.2892691607668 415.09523344283065L498.7930399790905 454.45609009146244Q501.0856163496992 458.20757869791294 501.0856163496992 460.9467608550038L501.0856163496992 460.9467608550038Q501.0856163496992 465.1150815288378 495.5477045973199 468.3604169106085L495.5477045973199 468.3604169106085Q491.051873013399 471.18892022499574 487.27061068784974 471.18892022499574L487.27061068784974 471.18892022499574Q483.8168592723873 471.18892022499574 481.19677199169166 466.6930886410749L481.19677199169166 466.6930886410749L452.19716958944707 415.9288975775974Q450.9466733872969 414.05315327437216 450.9466733872969 412.2667301284433L450.9466733872969 412.2667301284433Q450.9466733872969 409.31913193766076 454.936351746538 407.0265555670521L454.936351746538 407.0265555670521Q465.1785111165299 401.280227780981 470.47823311611876 392.46720692773215Q475.74818139660874 383.6839597935821 475.74818139660874 373.3227055471949ZM407.2090800311395 402.73914001682294L407.2090800311395 402.73914001682294L407.2090800311395 352.4811021780253Q407.2090800311395 348.72961357157476 409.76961987363745 347.5088910885234Q412.3301597161354 346.3179423245708 417.6596554348231 346.3179423245708L417.6596554348231 346.3179423245708Q423.52507809728945 346.3179423245708 425.8772019060957 347.5088910885234Q428.22932571490196 348.72961357157476 428.22932571490196 352.4811021780253L428.22932571490196 352.4811021780253L428.22932571490196 390.5914626245069Q428.22932571490196 395.0872942084278 432.2190040741431 395.0872942084278L432.2190040741431 395.0872942084278L450.52984131991354 395.0872942084278Q455.0256729038344 395.0872942084278 455.0256729038344 397.7073814891234L455.0256729038344 397.7073814891234Q455.0256729038344 400.23814761252254 450.11300925253016 403.5132567133921Q445.2003456012259 406.8181395333604 437.9653318602141 409.0213947466726L437.9653318602141 409.0213947466726Q433.5588214335897 410.3909858252181 416.2007431989813 410.3909858252181L416.2007431989813 410.3909858252181Q410.8712474802936 410.3909858252181 409.02527689616716 408.485467802894Q407.2090800311395 406.6097234996687 407.2090800311395 402.73914001682294ZM428.22932571490196 423.1341375995103L428.22932571490196 423.1341375995103L428.22932571490196 455.58749141721734Q428.22932571490196 460.7383448213121 426.0260705015898 463.2393372256125L426.0260705015898 463.2393372256125Q423.4059832208942 466.36557773098787 418.642188165084 468.7772489779918Q413.9081668283726 471.18892022499574 410.8712474802936 471.18892022499574L410.8712474802936 471.18892022499574Q407.2090800311395 471.18892022499574 407.2090800311395 466.6930886410749L407.2090800311395 466.6930886410749L407.2090800311395 423.1341375995103Q407.2090800311395 419.3826489930598 409.8589410309339 418.0130579145144Q412.53857574982715 416.67324055506776 417.8680714685148 416.67324055506776L417.8680714685148 416.67324055506776Q423.6143992545859 416.67324055506776 425.9367493442934 417.95351047631675Q428.22932571490196 419.2635541166645 428.22932571490196 423.1341375995103Z " fill="white" transform="matrix(0.6029908108675747,0,0,0.6029908108675747,0,61.1017356393629)"/><path d="M634.9662034411103 381.4707605671453L634.9662034411103 381.4707605671453Q635.6512243233924 384.3674202979384 635.6512243233924 388.8298420453763L635.6512243233924 388.8298420453763L635.6512243233924 420.47780680681143Q635.6512243233924 423.7854790669738 634.2811825588282 425.5861053861154L634.2811825588282 425.5861053861154Q632.637132441351 427.5041638565054 630.073197139095 428.91334967148583Q627.5288338620471 430.3225354864662 626.5110885512279 430.3225354864662L626.5110885512279 430.3225354864662Q624.1037294506364 430.3225354864662 624.1037294506364 427.367159680049L624.1037294506364 427.367159680049L624.1037294506364 362.21188776241297Q624.1037294506364 361.37029067846635 624.5147419800056 360.8614180230568Q624.9257545093749 360.35254536764717 625.5324872908247 360.35254536764717L625.5324872908247 360.35254536764717Q626.569804626852 360.35254536764717 627.6462660132954 362.40760801449363Q628.7031553745308 364.4822426865481 631.4628109288674 371.2150193581212L631.4628109288674 371.2150193581212Q634.3398986344523 378.4370966598958 634.9662034411103 381.4707605671453ZM651.8960052460834 412.78600090004335L651.8960052460834 412.78600090004335L624.5147419800056 341.56340116790835Q623.9667252741799 340.2520754789682 623.9667252741799 339.0190378908604L623.9667252741799 339.0190378908604Q623.9667252741799 337.3749877733832 625.258478937912 335.9266579079867L625.258478937912 335.9266579079867Q626.8438129797648 333.9890274123886 629.4664643576451 332.8538499503211Q632.0695437103172 331.71867248825356 633.5178735757138 331.71867248825356L633.5178735757138 331.71867248825356Q635.0444915419425 331.71867248825356 635.9056606510973 332.4036933705357Q636.7472577350438 333.10828627802584 637.5105667181583 334.9480566475836L637.5105667181583 334.9480566475836L660.7621326653351 397.5002492125475Q662.014742278651 400.866637548334 662.014742278651 402.9999882960127L662.014742278651 402.9999882960127Q662.014742278651 404.72232651432205 661.1927172199124 407.1296856149136L661.1927172199124 407.1296856149136Q659.5290950772272 411.3376710346468 657.9437610353743 413.7450301352383L657.9437610353743 413.7450301352383Q656.4954311699778 416.01538505937344 654.8513810525005 416.01538505937344L654.8513810525005 416.01538505937344Q654.029355993762 416.01538505937344 653.3443351114798 415.33036417709127Q652.6593142291977 414.64534329480915 651.8960052460834 412.78600090004335ZM688.6326965616144 380.5704474075745L688.6326965616144 380.5704474075745L674.2668300588973 417.93344352976345Q671.9769031095542 423.5897588148931 667.103468832747 426.9561471506797L667.103468832747 426.9561471506797Q662.347466707188 430.3225354864662 659.7443873545159 430.3225354864662L659.7443873545159 430.3225354864662Q657.6697526824614 430.3225354864662 657.6697526824614 428.4044770160762L657.6697526824614 428.4044770160762Q657.6697526824614 427.58245195733764 658.3547735647435 425.9971179154847L658.3547735647435 425.9971179154847L686.4993458139356 351.40812984756315Q687.7519554272516 348.86376657051517 688.4956923851579 348.5114701167701L688.4956923851579 348.5114701167701Q688.9067049145272 348.3157498646895 689.3177174438965 348.3157498646895L689.3177174438965 348.3157498646895Q690.9030514857495 348.3157498646895 691.3140640151187 350.9971173181939L691.3140640151187 350.9971173181939Q691.725076544488 353.4044764187854 691.725076544488 362.1335996615808L691.725076544488 362.1335996615808Q691.725076544488 367.5746226694218 691.1574878134543 371.6651759379066Q690.5703270572124 375.7557292063914 688.6326965616144 380.5704474075745ZM709.6921956854883 334.6740482946708L709.6921956854883 334.6740482946708L709.6921956854883 420.0667942774421Q709.6921956854883 423.4527546384368 708.3221539209239 425.09680475591387L708.3221539209239 425.09680475591387Q706.5998157026146 427.15186740276033 703.3900035684926 428.7372014446133Q700.1997634595785 430.3225354864662 698.2034168883563 430.3225354864662L698.2034168883563 430.3225354864662Q695.8547738633889 430.3225354864662 695.8547738633889 427.367159680049L695.8547738633889 427.367159680049L695.8547738633889 341.97441369727767Q695.8547738633889 339.0777539664846 697.2443876531613 337.3749877733832L697.2443876531613 337.3749877733832Q699.0254419470949 335.24163702570456 702.1961100308008 333.480154756979Q705.3667781145068 331.71867248825356 707.2848365848968 331.71867248825356L707.2848365848968 331.71867248825356Q709.6921956854883 331.71867248825356 709.6921956854883 334.6740482946708ZM756.2736156806741 357.0448731074848L756.2736156806741 357.0448731074848Q771.9703798975393 357.0448731074848 779.3686054261864 366.3024410308978Q786.7668309548336 375.5600089543108 786.7668309548336 393.5858441709352L786.7668309548336 393.5858441709352Q786.7668309548336 399.1638713552327 785.3380731146451 405.52477954785263Q783.9288872996647 411.8856877404725 781.5215281990731 416.837410118112L781.5215281990731 416.837410118112Q778.918448846401 422.0631408486644 775.1214759560371 425.72310956257184Q771.3440750908812 429.36350625127125 769.015004091122 429.36350625127125L769.015004091122 429.36350625127125Q767.5666742257255 429.36350625127125 767.5666742257255 428.05218056233116L767.5666742257255 428.05218056233116Q767.5666742257255 427.64116803296184 768.036402830719 426.9561471506797Q768.5257034609205 426.27112626839755 769.3477285196591 424.86194045341716Q770.1697535783976 423.4527546384368 770.7960583850556 421.5934122436709L770.7960583850556 421.5934122436709Q773.6144300150164 413.8820343116948 773.6144300150164 399.77060413668255L773.6144300150164 399.77060413668255Q773.6144300150164 392.0005101290823 772.5575406537811 386.24633471791225Q771.4810792673377 380.5117313319503 769.0345761163301 376.02973755930424Q766.5880729653225 371.56731581186625 762.2626553943409 369.25781683731503Q757.9372378233593 366.9483178627638 751.6741897567797 366.9483178627638L751.6741897567797 366.9483178627638Q743.0037825896086 366.9483178627638 733.7853587166117 373.2896540301757L733.7853587166117 373.2896540301757Q733.4330622628667 373.5636623830885 732.7480413805845 374.0138189628739Q732.0630204983023 374.4444035174513 731.6715799941411 374.7379838955722Q731.2997115151879 375.01199224848506 730.8886989858187 375.20771250056566Q730.4776864564494 375.4230047778544 730.2036781035365 375.4230047778544L730.2036781035365 375.4230047778544Q729.2250768431335 375.4230047778544 729.2250768431335 374.2486832653707L729.2250768431335 374.2486832653707Q729.2250768431335 373.4853742822563 730.027529876664 372.03704441685977Q730.8104108849864 370.6082865766713 731.3584275908121 369.90369366918105L731.3584275908121 369.90369366918105Q741.4184485477556 357.0448731074848 756.2736156806741 357.0448731074848ZM739.4808180521576 391.64821367533716L739.4808180521576 391.64821367533716Q739.4808180521576 396.4629318765202 739.6961103294462 399.907608313139Q739.8918305815268 403.3522847497578 740.4789913377687 407.0709695392894Q741.0661520940105 410.7896543288211 742.2796176569103 413.2557295050368Q743.473511194602 415.7413767064606 745.2937095389517 417.79643935330705Q747.1334799085095 419.8710740253615 749.9518515384704 420.86924731097264Q752.7702231684311 421.86742059658377 756.547624033587 421.86742059658377L756.547624033587 421.86742059658377Q759.777008192917 421.86742059658377 762.2235113439248 420.96710743701294Q764.6700144949324 420.0667942774421 765.0223109486775 420.0667942774421L765.0223109486775 420.0667942774421Q766.451068788866 420.0667942774421 766.451068788866 421.5934122436709L766.451068788866 421.5934122436709Q766.451068788866 424.6857922265446 762.0277910918442 428.2283287892037Q757.5849413696142 431.77086535186277 751.1066010257459 431.77086535186277L751.1066010257459 431.77086535186277Q745.1371333372872 431.77086535186277 740.6942836150573 429.7745187806405Q736.2514338928274 427.77817220941824 733.570066439323 424.54878805008815Q730.8886989858187 421.31940389075805 729.2642208935496 416.4263975887427Q727.6593148264885 411.5333912867274 727.1112981206628 406.5816689090879Q726.543709389629 401.6299465314484 726.543709389629 395.36689846486877L726.543709389629 395.36689846486877Q726.543709389629 391.8635059526258 727.2483022971193 387.96867293622165Q727.9333231794014 384.09341194502554 729.088072666677 382.018777272971L729.088072666677 382.018777272971Q730.5364025320736 379.5527020967553 733.7462146661956 377.4780674247008Q736.9364547751096 375.4230047778544 739.2068096992447 375.4230047778544L739.2068096992447 375.4230047778544Q740.929147917554 375.4230047778544 740.929147917554 377.4780674247008L740.929147917554 377.4780674247008Q740.929147917554 377.8303638784459 740.2049829848557 382.7820862560854Q739.4808180521576 387.73380863372495 739.4808180521576 391.64821367533716ZM801.6807141633763 427.367159680049L801.6807141633763 427.367159680049L801.6807141633763 390.3564600116051Q801.6807141633763 386.4224829447848 803.5400565581422 384.42613637356254L803.5400565581422 384.42613637356254Q805.4776870537402 382.2340695502597 807.9437622299558 380.5704474075745Q810.4294094313797 378.9263972900973 811.9364553724004 378.9263972900973L811.9364553724004 378.9263972900973Q814.0698061200791 378.9263972900973 814.0698061200791 381.88177309651456L814.0698061200791 381.88177309651456L814.0698061200791 421.4564080672145Q814.0698061200791 425.15552083153807 810.6642737338764 427.73902815900215Q807.2587413476738 430.3225354864662 804.0880732639678 430.3225354864662L804.0880732639678 430.3225354864662Q801.6807141633763 430.3225354864662 801.6807141633763 427.367159680049ZM847.3031049233671 363.9342259807224L847.3031049233671 363.9342259807224Q848.1251299821056 364.67796293862875 848.6927187131395 365.088975467998Q849.2407354189652 365.49998799736727 849.6908919987507 365.6369921738237Q850.121476553328 365.77399635028013 850.7477813599859 365.77399635028013L850.7477813599859 365.77399635028013Q852.391831477463 365.77399635028013 857.0891175273978 362.8186205438629L857.0891175273978 362.8186205438629Q866.1705372239383 357.0448731074848 873.0403180719677 357.0448731074848L873.0403180719677 357.0448731074848Q883.7853599111934 357.0448731074848 889.0502346921619 363.816793829474Q894.2955374479222 370.6082865766713 894.2955374479222 386.2267626927042L894.2955374479222 386.2267626927042L894.2955374479222 421.0453955378452Q894.2955374479222 424.74450830216875 890.8900050617196 427.54330790692154Q887.4844726755168 430.3225354864662 884.3920926926432 430.3225354864662L884.3920926926432 430.3225354864662Q881.9847335920517 430.3225354864662 881.9847335920517 427.367159680049L881.9847335920517 427.367159680049L881.9847335920517 400.18161666605187Q881.9847335920517 395.6409068177816 881.9260175164275 392.76381911219664Q881.8477294155953 389.86715938140355 881.6520091635147 386.28547876832835Q881.4367168862259 382.70379815525314 881.0257043568567 380.5117313319503Q880.6146918274874 378.30009248343936 879.8905268947891 375.83401730722363Q879.1663619620908 373.34837010579986 878.0703285504394 371.93918429081947Q876.974295138788 370.529998475839 875.4085331221431 369.25781683731503Q873.8623431307063 367.9856351987911 871.7681364334437 367.4767625433815Q869.6739297361812 366.9483178627638 866.9925622826768 366.9483178627638L866.9925622826768 366.9483178627638Q862.1778440814937 366.9483178627638 857.5588461323912 369.5318251902279Q852.9594202084968 372.115332517692 844.8370297471514 378.515384760728L844.8370297471514 378.515384760728Q842.7036789994727 380.100718802581 841.7446497642777 380.100718802581L841.7446497642777 380.100718802581Q840.903052680331 380.100718802581 840.2963198988812 378.7111050128087L840.2963198988812 378.7111050128087Q840.0223115459683 378.10437223135875 839.7483031930554 377.0670548953315L839.7483031930554 377.0670548953315Q838.2216852268267 371.84132416477917 835.6186058741545 369.3948210137715Q832.9959544962744 366.9483178627638 827.770223765722 366.9483178627638L827.770223765722 366.9483178627638Q823.6992425224453 366.9483178627638 818.7866641952219 369.35567696335534Q813.8740858679985 371.7630360639469 806.5150043897675 377.4780674247008L806.5150043897675 377.4780674247008Q804.2446494656324 379.2004056430102 803.1290440287728 379.2004056430102L803.1290440287728 379.2004056430102Q801.6807141633763 379.2004056430102 801.6807141633763 377.0083388197073L801.6807141633763 377.0083388197073L801.6807141633763 365.715280274656Q801.6807141633763 362.07488358595657 805.1253905999951 359.55009233411664Q808.5700670366139 357.0448731074848 811.7407351203198 357.0448731074848L811.7407351203198 357.0448731074848Q814.1480942209113 357.0448731074848 814.1480942209113 360.00024891390206L814.1480942209113 360.00024891390206L814.1480942209113 361.72258713221146Q814.1480942209113 364.129946232803 815.1854115569386 364.129946232803L815.1854115569386 364.129946232803Q815.8704324392207 364.129946232803 817.9254950860671 362.8186205438629L817.9254950860671 362.8186205438629Q826.6741903540706 357.0448731074848 833.1329586727308 357.0448731074848L833.1329586727308 357.0448731074848Q836.9886476387188 357.0448731074848 839.630871041807 358.0039023426798Q842.2926664701034 358.9629315778748 847.3031049233671 363.9342259807224ZM841.4510693861567 427.367159680049L841.4510693861567 427.367159680049L841.4510693861567 390.3564600116051Q841.4510693861567 386.50077104561706 843.3104117809225 384.42613637356254L843.3104117809225 384.42613637356254Q845.1697541756885 382.2927856258839 847.7141174527364 380.6095914579906Q850.2584807297843 378.9263972900973 851.706810595181 378.9263972900973L851.706810595181 378.9263972900973Q853.8401613428596 378.9263972900973 853.8401613428596 381.88177309651456L853.8401613428596 381.88177309651456L853.8401613428596 421.0453955378452Q853.8401613428596 424.1377755207189 852.6071237547517 425.72310956257184L852.6071237547517 425.72310956257184Q850.8847855364423 427.77817220941824 848.4187103602267 429.05035384794223Q845.9330631588028 430.3225354864662 843.8780005119564 430.3225354864662L843.8780005119564 430.3225354864662Q841.4510693861567 430.3225354864662 841.4510693861567 427.367159680049ZM923.5557151339738 326.49294175770115L923.5557151339738 326.49294175770115L922.8511222264835 346.51512354554785Q922.8511222264835 350.5078166879923 921.2070721090065 352.5628793348388L921.2070721090065 352.5628793348388Q917.4296712438506 357.0448731074848 914.5330115130575 357.0448731074848L914.5330115130575 357.0448731074848Q912.3996607653789 357.0448731074848 912.125652412466 354.0894973010676L912.125652412466 354.0894973010676L911.166623177271 332.83427792511304Q911.166623177271 330.4073467993134 912.751957219124 328.56757642975566L912.751957219124 328.56757642975566Q914.3960073366011 326.57122985853346 916.9795146640652 325.2599041695933Q919.5630219915294 323.94857848065317 921.2070721090065 323.94857848065317L921.2070721090065 323.94857848065317Q923.5557151339738 323.94857848065317 923.5557151339738 326.49294175770115ZM978.0442333132164 414.0190384881512L978.0442333132164 414.0190384881512Q978.0442333132164 406.65995700992016 974.0123961203558 403.4892889262142Q970.0001309527033 400.31862084250827 962.4257571971835 399.63359996022615L962.4257571971835 399.63359996022615Q955.7516966012346 399.02686717877623 950.9369784000515 397.36324503609103Q946.1222601988685 395.7191949186139 943.4408927453642 393.35097986843846Q940.7595252918597 390.963192793055 939.5460597289598 388.2426812891345Q938.3325941660601 385.522169785214 938.3325941660601 382.37107372671613L938.3325941660601 382.37107372671613Q938.3325941660601 379.141689567386 941.6402664262225 376.6168983155461Q944.9479386863848 374.11167908891423 947.2182936105199 374.11167908891423L947.2182936105199 374.11167908891423Q948.8036276523729 374.11167908891423 949.3516443581987 376.24502983659295L949.3516443581987 376.24502983659295Q949.8996610640244 378.5741008363522 950.4868218202662 380.15943487820516Q951.073982576508 381.74476892005816 952.1308719377432 382.95823448295795Q953.2073333241867 384.1521280206497 954.264222685422 384.87629295334796Q955.3406840718653 385.60045788604623 957.5718949455843 386.18761864228804Q959.8031058193033 386.7747793985299 961.8385964409417 387.1075038270669Q963.87408706258 387.45980028081203 967.6514879277358 387.9491009110136L967.6514879277358 387.9491009110136Q973.6405276414026 388.6928378689199 977.8289410359278 390.65004038972603Q982.0369264556609 392.62681493574024 984.1702772033395 395.5039026413252Q986.3036279510184 398.4005623721183 987.2039411105891 401.492942354992Q988.0846822449519 404.58532233786565 988.0846822449519 408.51929940468597L988.0846822449519 408.51929940468597Q988.0846822449519 412.92300507649975 986.6167803543473 416.9352702441523Q985.1293064385346 420.96710743701294 982.9959556908559 423.4723266636448Q980.8626049431773 425.9971179154847 978.6705381198744 427.4650198060893Q976.4588992713634 428.95249372190193 974.8148491538864 428.95249372190193L974.8148491538864 428.95249372190193Q973.7188157422349 428.95249372190193 973.7188157422349 427.9151763858747L973.7188157422349 427.9151763858747Q973.7188157422349 427.5041638565054 974.8148491538864 425.8601137390283L974.8148491538864 425.8601137390283Q978.0442333132164 420.61481098326783 978.0442333132164 414.0190384881512ZM982.5849431614866 361.03756624992934L982.5849431614866 361.03756624992934Q984.7182939091654 362.6816163674065 984.7182939091654 364.26695040925944L984.7182939091654 364.26695040925944Q984.7182939091654 365.98928862756884 981.8607782287884 368.49450785420066Q979.0032625484114 371.0192991060406 976.6741915486521 371.0192991060406L976.6741915486521 371.0192991060406Q975.98917066637 371.0192991060406 975.4215819353362 370.84315087916804Q974.8735652295105 370.6670026522955 973.8166758682753 370.21684607251007Q972.7402144818318 369.76668949272465 972.2704858768384 369.62968531626825L972.2704858768384 369.62968531626825Q965.7921455329702 366.9483178627638 960.6447029032499 366.9483178627638L960.6447029032499 366.9483178627638Q950.9369784000515 366.9483178627638 943.5778969218205 371.43031163540985L943.5778969218205 371.43031163540985Q943.0885962916191 371.7043199883227 942.2274271824642 372.2523366941484Q941.3662580733096 372.80035339997414 940.8573854179 373.11350580330316Q940.3289407372824 373.4266582066321 939.9962163087453 373.4266582066321L939.9962163087453 373.4266582066321Q939.0371870735503 373.4266582066321 939.0371870735503 372.2523366941484L939.0371870735503 372.2523366941484Q939.0371870735503 370.74529075312773 941.170537821229 368.0639232996233L941.170537821229 368.0639232996233Q950.2519575177694 357.0448731074848 966.6924586925409 357.0448731074848L966.6924586925409 357.0448731074848Q971.0178762635225 357.0448731074848 975.5585861117926 358.08219044351205Q980.0992959600628 359.0999357543312 982.5849431614866 361.03756624992934ZM951.4067070050451 418.34445605913277L951.4067070050451 418.34445605913277Q953.6770619291801 419.7340698489051 954.5382310383349 420.20379845389857Q955.3994001474896 420.6930990841001 957.5131788699603 421.28025984034196Q959.6073855672227 421.86742059658377 962.0147446678143 421.86742059658377L962.0147446678143 421.86742059658377Q965.0484085750637 421.86742059658377 968.003784381481 420.96710743701294Q970.9591601878983 420.0667942774421 971.0961643643546 420.0667942774421L971.0961643643546 420.0667942774421Q972.6814984062077 420.0667942774421 972.6814984062077 421.7304164201273L972.6814984062077 421.7304164201273Q972.6814984062077 422.82644983177875 971.5854649945561 424.45092792404785Q970.4698595576967 426.0558339911089 968.4735129864744 427.73902815900215Q966.4771664152522 429.4222223268954 963.0129179534254 430.5965438393791Q959.5290974663905 431.77086535186277 955.3994001474896 431.77086535186277L955.3994001474896 431.77086535186277Q949.6256527111115 431.77086535186277 944.3216338797268 429.0894978983584Q939.0371870735503 426.408130444854 939.0371870735503 423.5897588148931L939.0371870735503 423.5897588148931Q939.0371870735503 421.4564080672145 941.8947027539273 419.20562516828744Q944.7326464090961 416.9744142945684 947.3552977869763 416.9744142945684L947.3552977869763 416.9744142945684Q949.0776360052857 416.9744142945684 951.4067070050451 418.34445605913277ZM1077.274401118087 365.98928862756884L1077.274401118087 365.98928862756884Q1077.274401118087 360.82227397264063 1075.8456432778987 356.9470129814445Q1074.4364574629183 353.0521799650403 1072.146530513575 350.6839649148649Q1069.8370315390239 348.3157498646895 1066.392355102405 346.8282759488768Q1062.9476786657863 345.34080203306416 1059.346426027503 344.79278532723845Q1055.7256013640117 344.24476862141273 1051.2631796165736 344.24476862141273L1051.2631796165736 344.24476862141273L1034.8813945174263 344.24476862141273Q1033.9810813578556 344.24476862141273 1033.472208702446 344.1860525457886Q1032.9437640218282 344.10776444495633 1032.5718955428752 343.73589596600317Q1032.2000270639219 343.3444554618419 1032.2000270639219 342.6594345795598L1032.2000270639219 342.6594345795598Q1032.2000270639219 339.7040587731425 1036.1144321055342 336.47467461381245Q1040.0484091723547 333.2452904544823 1044.021530289591 333.10828627802584L1044.021530289591 333.10828627802584L1057.0956431285758 332.8929940007372Q1059.9335867837449 332.8929940007372 1062.4779500607929 333.06914222760975Q1065.0223133378408 333.2452904544823 1068.66271002654 333.9694553871806Q1072.3031067152397 334.6740482946708 1075.336770622489 335.8483698071544Q1078.3704345297385 337.02269131963817 1081.5606746386525 339.25390219335713Q1084.7704867727746 341.4851130670761 1086.9234095456613 344.5187769743256Q1089.095904343756 347.5524408815751 1090.5050901587365 352.15186680546947Q1091.914275973717 356.77086475457196 1091.914275973717 362.40760801449363L1091.914275973717 362.40760801449363Q1091.914275973717 377.1453429961638 1077.274401118087 387.2445080035234L1077.274401118087 387.2445080035234Q1075.1410503704085 388.7711259697522 1075.1410503704085 390.41517608722927L1075.1410503704085 390.41517608722927Q1075.1410503704085 391.64821367533716 1076.295799857684 393.4488399944788L1076.295799857684 393.4488399944788L1092.4035766039185 419.3230573195358Q1093.910622544939 421.7891324957515 1093.910622544939 423.5897588148931L1093.910622544939 423.5897588148931Q1093.910622544939 426.32984234402176 1090.27022585624 428.4631930917004L1090.27022585624 428.4631930917004Q1087.3148500498226 430.3225354864662 1084.8292028483988 430.3225354864662L1084.8292028483988 430.3225354864662Q1082.5588479242638 430.3225354864662 1080.8365097059543 427.367159680049L1080.8365097059543 427.367159680049L1061.7929291785106 393.99685670030453Q1060.951332094564 392.76381911219664 1060.951332094564 391.58949759971296L1060.951332094564 391.58949759971296Q1060.951332094564 389.6518671041149 1063.573983472444 388.1448211630942L1063.573983472444 388.1448211630942Q1070.3067601440173 384.3674202979384 1073.7905806310523 378.5741008363522Q1077.274401118087 372.80035339997414 1077.274401118087 365.98928862756884ZM1032.2000270639219 385.32644953313337L1032.2000270639219 385.32644953313337L1032.2000270639219 352.2888709819259Q1032.2000270639219 349.8227958057102 1033.8832212318152 349.0203427721797Q1035.5664153997086 348.23746176385725 1039.0698079119516 348.23746176385725L1039.0698079119516 348.23746176385725Q1042.9254968779396 348.23746176385725 1044.4716868693763 349.0203427721797Q1046.0178768608132 349.8227958057102 1046.0178768608132 352.2888709819259L1046.0178768608132 352.2888709819259L1046.0178768608132 377.3410632482444Q1046.0178768608132 380.2964390546616 1048.6405282386934 380.2964390546616L1048.6405282386934 380.2964390546616L1060.6773237416512 380.2964390546616Q1063.6326995480683 380.2964390546616 1063.6326995480683 382.018777272971L1063.6326995480683 382.018777272971Q1063.6326995480683 383.6823994156562 1060.4033153887383 385.835322188543Q1057.1739312294083 388.00781698663775 1052.4179291038492 389.4561468520343L1052.4179291038492 389.4561468520343Q1049.5408413982643 390.3564600116051 1038.1107786767566 390.3564600116051L1038.1107786767566 390.3564600116051Q1034.6073861645136 390.3564600116051 1033.3939206016137 389.1038503982892Q1032.2000270639219 387.8708128101813 1032.2000270639219 385.32644953313337ZM1046.0178768608132 398.7332868006553L1046.0178768608132 398.7332868006553L1046.0178768608132 420.0667942774421Q1046.0178768608132 423.4527546384368 1044.5891190206248 425.09680475591387L1044.5891190206248 425.09680475591387Q1042.8667808023154 427.15186740276033 1039.7352567690255 428.7372014446133Q1036.6037327357358 430.3225354864662 1034.6073861645136 430.3225354864662L1034.6073861645136 430.3225354864662Q1032.2000270639219 430.3225354864662 1032.2000270639219 427.367159680049L1032.2000270639219 427.367159680049L1032.2000270639219 398.7332868006553Q1032.2000270639219 396.2672116244396 1033.9419373074395 395.36689846486877Q1035.7034195761648 394.48615733050605 1039.206812088408 394.48615733050605L1039.206812088408 394.48615733050605Q1043.0037849787718 394.48615733050605 1044.5108309197926 395.32775441445267Q1046.0178768608132 396.18892352360734 1046.0178768608132 398.7332868006553ZM1120.7438691051912 385.8157501633349L1120.7438691051912 385.8157501633349Q1120.7438691051912 387.73380863372495 1121.957334668091 388.2426812891345Q1123.1512282057827 388.7711259697522 1125.4998712307502 388.7711259697522L1125.4998712307502 388.7711259697522Q1131.488910944417 388.7711259697522 1135.7556124397743 387.73380863372495Q1140.0223139351315 386.69649129769766 1142.2926688592665 384.83714890293186Q1144.5630237834018 382.977806508166 1145.561197069013 380.9227438613196Q1146.559370354624 378.8481091892651 1146.559370354624 376.38203401304935L1146.559370354624 376.38203401304935Q1146.559370354624 372.115332517692 1143.6039945482066 369.5318251902279Q1140.6290467165816 366.9483178627638 1134.091990297089 366.9483178627638L1134.091990297089 366.9483178627638Q1123.855821113273 366.9483178627638 1114.8331174923567 373.4266582066321L1114.8331174923567 373.4266582066321Q1112.1517500388522 375.4230047778544 1111.4667291565702 375.4230047778544L1111.4667291565702 375.4230047778544Q1110.2924076440866 375.4230047778544 1110.2924076440866 374.11167908891423L1110.2924076440866 374.11167908891423Q1110.2924076440866 372.3893408706049 1112.2887542153087 369.90369366918105L1112.2887542153087 369.90369366918105Q1116.0074390048403 365.16726356883026 1120.7438691051912 362.1335996615808Q1125.4998712307502 359.0999357543312 1129.4142762723623 358.08219044351205Q1133.3482533391825 357.0448731074848 1137.2039423051708 357.0448731074848L1137.2039423051708 357.0448731074848Q1142.1556646828103 357.0448731074848 1146.1483578252546 358.08219044351205Q1150.1410509676994 359.0999357543312 1153.233430950573 361.27243055242604Q1156.3258109334465 363.44492535052086 1158.048149151756 367.2027541904686Q1159.7704873700654 370.94101100520834 1159.7704873700654 375.9710214836801L1159.7704873700654 375.9710214836801Q1159.7704873700654 386.69649129769766 1149.5538902114574 392.50938278449183Q1139.3372930528494 398.32227427128606 1121.6441822647619 398.32227427128606L1121.6441822647619 398.32227427128606Q1116.6924598871226 398.32227427128606 1110.429411820543 397.77425756546035L1110.429411820543 397.77425756546035Q1107.3370318376692 397.57853731337974 1107.3370318376692 394.7601656834189L1107.3370318376692 394.7601656834189Q1107.3370318376692 387.1075038270669 1109.529098660972 383.290958911495Q1111.740737509483 379.47441399592304 1115.244130021726 377.4193513490766L1115.244130021726 377.4193513490766Q1118.6888064583447 375.4230047778544 1120.4698607522785 375.4230047778544L1120.4698607522785 375.4230047778544Q1122.1334828949634 375.4230047778544 1122.1334828949634 377.4780674247008L1122.1334828949634 377.4780674247008Q1122.1334828949634 378.30009248343936 1121.4484620126814 381.5099046175614Q1120.7438691051912 384.7001447264754 1120.7438691051912 385.8157501633349ZM1107.885048543495 404.99633486723496L1107.885048543495 404.99633486723496Q1107.885048543495 401.4342262793678 1111.1927208036573 401.4342262793678L1111.1927208036573 401.4342262793678L1117.1034724164917 401.4342262793678Q1118.8845267104255 401.4342262793678 1119.6086916431236 402.1192471616499Q1120.332856575822 402.8042680439321 1120.7438691051912 405.1333390436914L1120.7438691051912 405.1333390436914Q1123.4448085839035 421.86742059658377 1139.0632846999365 421.86742059658377L1139.0632846999365 421.86742059658377Q1142.9776897415488 421.86742059658377 1146.4223661781675 420.9083913613888Q1149.8670426147864 419.9297901009857 1151.74595703476 418.7750406137101Q1153.6444434799423 417.6007191012264 1155.2493495470032 416.6416898660314Q1156.8738276392723 415.66308860562833 1157.6371366223866 415.66308860562833L1157.6371366223866 415.66308860562833Q1159.2224706642396 415.66308860562833 1159.2224706642396 417.38542682393773L1159.2224706642396 417.38542682393773Q1159.2224706642396 418.8337566893343 1157.6371366223866 421.1041116134694Q1156.0518025805336 423.37446653760446 1153.1159987993246 425.82096968861214Q1150.1997670433234 428.2674728396198 1145.0718964388116 430.00938308313727Q1139.9440258342993 431.77086535186277 1133.9549861206324 431.77086535186277L1133.9549861206324 431.77086535186277Q1121.5854661891378 431.77086535186277 1114.7352573663163 424.31392374759145Q1107.885048543495 416.837410118112 1107.885048543495 404.99633486723496ZM1184.4703831826387 394.68187758258665L1184.4703831826387 394.68187758258665Q1184.4703831826387 421.7304164201273 1203.7292559873708 421.7304164201273L1203.7292559873708 421.7304164201273Q1207.7219491298156 421.7304164201273 1211.2253416420585 420.7909592101404Q1214.7483061795094 419.8710740253615 1216.6272205994833 418.6967525128778Q1218.5257070446653 417.52243100039414 1220.1697571621426 416.6025458156153Q1221.8333793048278 415.66308860562833 1222.5184001871098 415.66308860562833L1222.5184001871098 415.66308860562833Q1224.1624503045869 415.66308860562833 1224.1624503045869 417.24842264748133L1224.1624503045869 417.24842264748133Q1224.1624503045869 418.7750406137101 1222.3813960106536 421.1432556638855Q1220.6003417167199 423.5114707140609 1217.5666778094703 425.91882981465244Q1214.5330139022208 428.32618891524396 1209.757439751454 430.04852713355336Q1204.981865600687 431.77086535186277 1199.8148509457587 431.77086535186277L1199.8148509457587 431.77086535186277Q1185.3706963422096 431.77086535186277 1178.4030553681396 423.0613141342755Q1171.4549864192782 414.3713349418963 1171.4549864192782 398.0482659183732L1171.4549864192782 398.0482659183732Q1171.4549864192782 386.5594871212412 1174.5669384273597 381.88177309651456L1174.5669384273597 381.88177309651456Q1176.1327004440045 379.47441399592304 1179.3816566285427 377.3802072986605Q1182.6110407878728 375.2860006013979 1184.8813957120078 375.2860006013979L1184.8813957120078 375.2860006013979Q1186.5254458294853 375.2860006013979 1186.5254458294853 377.2040590717879L1186.5254458294853 377.2040590717879Q1186.5254458294853 377.2823471726202 1185.5077005186658 383.1930987854547Q1184.4703831826387 389.1038503982892 1184.4703831826387 394.68187758258665ZM1219.9740369100618 361.03756624992934L1219.9740369100618 361.03756624992934Q1222.0290995569085 362.6229002917823 1222.0290995569085 364.26695040925944L1222.0290995569085 364.26695040925944Q1222.0290995569085 365.98928862756884 1219.2890160277798 368.43579177857646Q1216.529360473443 370.88229492958413 1214.2002894736838 370.88229492958413L1214.2002894736838 370.88229492958413Q1212.2039429024617 370.88229492958413 1209.522575448957 369.62968531626825L1209.522575448957 369.62968531626825Q1203.7292559873708 366.9483178627638 1198.9928258870202 366.9483178627638L1198.9928258870202 366.9483178627638Q1188.5217924007075 366.9483178627638 1178.833639922717 373.70066655954497L1178.833639922717 373.70066655954497Q1175.8586920910918 375.69701313076723 1175.2519593096417 375.69701313076723L1175.2519593096417 375.69701313076723Q1174.2929300744468 375.69701313076723 1174.2929300744468 374.52269161828355L1174.2929300744468 374.52269161828355Q1174.2929300744468 373.70066655954497 1175.0366670323533 372.2523366941484Q1175.7999760154676 370.8040068287519 1176.4262808221256 370.0406978456375L1176.4262808221256 370.0406978456375Q1181.6520115526778 363.3666372496886 1187.9737756948816 360.21554119119077Q1194.3151118622936 357.0448731074848 1204.0032643402837 357.0448731074848L1204.0032643402837 357.0448731074848Q1208.3482539364736 357.0448731074848 1212.8889637847437 358.08219044351205Q1217.4296736330139 359.0999357543312 1219.9740369100618 361.03756624992934ZM1249.9779515540197 360.00024891390206L1249.9779515540197 360.00024891390206L1249.9779515540197 421.4564080672145Q1249.9779515540197 424.05948741988664 1248.7253419407039 425.72310956257184L1248.7253419407039 425.72310956257184Q1246.9442876467704 427.77817220941824 1244.4977844957625 429.05035384794223Q1242.051281344755 430.3225354864662 1239.9962186979087 430.3225354864662L1239.9962186979087 430.3225354864662Q1237.588859597317 430.3225354864662 1237.588859597317 427.367159680049L1237.588859597317 427.367159680049L1237.588859597317 365.93057255194464Q1237.588859597317 363.3079211740644 1238.8218971854249 361.72258713221146L1238.8218971854249 361.72258713221146Q1240.6225235045665 359.66752448536505 1243.0494546303662 358.3561987964249Q1245.4959577813738 357.0448731074848 1247.5705924534282 357.0448731074848L1247.5705924534282 357.0448731074848Q1249.9779515540197 357.0448731074848 1249.9779515540197 360.00024891390206ZM1249.9779515540197 324.1638707579419L1249.9779515540197 324.1638707579419L1249.9779515540197 334.1260315888451Q1249.9779515540197 336.74868296672526 1248.7253419407039 338.3927330842024L1248.7253419407039 338.3927330842024Q1246.9442876467704 340.4673677562569 1244.4977844957625 341.7395493947809Q1242.051281344755 343.0117310333049 1239.9962186979087 343.0117310333049L1239.9962186979087 343.0117310333049Q1237.588859597317 343.0117310333049 1237.588859597317 340.0563552268876L1237.588859597317 340.0563552268876L1237.588859597317 330.0746223707764Q1237.588859597317 327.393254917272 1238.8218971854249 325.86663695104323L1238.8218971854249 325.86663695104323Q1240.6225235045665 323.81157430419677 1243.0494546303662 322.5002486152567Q1245.4959577813738 321.18892292631654 1247.5705924534282 321.18892292631654L1247.5705924534282 321.18892292631654Q1249.9779515540197 321.18892292631654 1249.9779515540197 324.1638707579419ZM1283.211250357308 362.8186205438629L1283.211250357308 362.8186205438629Q1291.1183485413646 357.0448731074848 1299.2994550783342 357.0448731074848L1299.2994550783342 357.0448731074848Q1311.5515428585804 357.0448731074848 1318.3038915553616 365.4804159721592Q1325.0366682269348 373.8963868116256 1325.0366682269348 391.72650177616936L1325.0366682269348 391.72650177616936Q1325.0366682269348 398.45927844774246 1323.6666264623705 405.2703432201478Q1322.2965846978063 412.1009800177612 1319.8892255972146 416.9744142945684L1319.8892255972146 416.9744142945684Q1317.3448623201666 422.20014502512083 1313.587033480219 425.78182563819604Q1309.8292046402712 429.36350625127125 1307.500133640512 429.36350625127125L1307.500133640512 429.36350625127125Q1306.0518037751153 429.36350625127125 1306.0518037751153 428.05218056233116L1306.0518037751153 428.05218056233116Q1306.0518037751153 427.64116803296184 1306.5019603549008 426.9952912010958Q1306.9521169346863 426.32984234402176 1307.7741419934246 424.8815124786252Q1308.5961670521633 423.4527546384368 1309.2811879344454 421.5934122436709L1309.2811879344454 421.5934122436709Q1311.9038393123258 414.2147587402318 1311.9038393123258 399.77060413668255L1311.9038393123258 399.77060413668255Q1311.9038393123258 393.50755607010296 1311.3753946317079 388.6341217932957Q1310.8665219762984 383.7411154912804 1309.6334843881905 379.57227412196335Q1308.4004468000826 375.4230047778544 1306.4041002288604 372.70249327393384Q1304.4077536576383 369.9819817700133 1301.3349456999726 368.4749358289926Q1298.2817097675152 366.9483178627638 1294.2107285242382 366.9483178627638L1294.2107285242382 366.9483178627638Q1288.652273365149 366.9483178627638 1284.2094236429189 369.21867278689894Q1279.766573920689 371.48902771103405 1271.8594757366322 377.4780674247008L1271.8594757366322 377.4780674247008Q1269.6478368881212 379.2004056430102 1268.4147993000136 379.2004056430102L1268.4147993000136 379.2004056430102Q1267.0447575354492 379.2004056430102 1267.0447575354492 377.0083388197073L1267.0447575354492 377.0083388197073L1267.0447575354492 365.4412719217431Q1267.0447575354492 361.9378794095001 1270.6068661233164 359.4913762584925Q1274.1885467363916 357.0448731074848 1277.0069183663525 357.0448731074848L1277.0069183663525 357.0448731074848Q1279.414277466944 357.0448731074848 1279.414277466944 360.00024891390206L1279.414277466944 360.00024891390206L1279.414277466944 361.72258713221146Q1279.414277466944 364.20823433363523 1280.5298829038034 364.20823433363523L1280.5298829038034 364.20823433363523Q1281.4106240381661 364.20823433363523 1283.211250357308 362.8186205438629ZM1283.6809789623012 419.79278592452926L1283.6809789623012 419.79278592452926Q1286.792930970383 421.86742059658377 1292.0773777765596 421.86742059658377L1292.0773777765596 421.86742059658377Q1296.61808762483 421.86742059658377 1300.1606241874888 420.8301032605565Q1303.703160750148 419.79278592452926 1303.7814488509803 419.79278592452926L1303.7814488509803 419.79278592452926Q1305.2297787163766 419.79278592452926 1305.2297787163766 421.31940389075805L1305.2297787163766 421.31940389075805Q1305.2297787163766 424.8815124786252 1299.9257598849922 428.32618891524396Q1294.6217410536074 431.77086535186277 1287.2039434997523 431.77086535186277L1287.2039434997523 431.77086535186277Q1279.4925655677762 431.77086535186277 1273.640530030566 428.2674728396198L1273.640530030566 428.2674728396198Q1270.0588494174908 426.1341220919411 1268.55180347647 423.3157504619803Q1267.0447575354492 420.47780680681143 1267.0447575354492 416.07410113499765L1267.0447575354492 416.07410113499765L1267.0447575354492 390.4934641880615Q1267.0447575354492 386.5594871212412 1268.9040999302151 384.5044244743948L1268.9040999302151 384.5044244743948Q1270.7438702997729 382.37107372671613 1273.307805602029 380.68787955882283Q1275.8521688790768 378.98511336572153 1277.2809267192652 378.98511336572153L1277.2809267192652 378.98511336572153Q1279.414277466944 378.98511336572153 1279.414277466944 381.9600611973468L1279.414277466944 381.9600611973468L1279.414277466944 409.478328639881Q1279.414277466944 416.9744142945684 1283.6809789623012 419.79278592452926ZM1279.414277466944 440.44127251903393L1279.414277466944 440.44127251903393L1279.414277466944 462.32279670164644Q1279.414277466944 466.10019756680225 1276.0087450807414 468.64456084385023Q1272.6032126945386 471.18892412089815 1269.4521166360407 471.18892412089815L1269.4521166360407 471.18892412089815Q1267.0447575354492 471.18892412089815 1267.0447575354492 468.2335483144809L1267.0447575354492 468.2335483144809L1267.0447575354492 433.76721192308503Q1267.0447575354492 430.67483194021133 1269.4521166360407 430.67483194021133L1269.4521166360407 430.67483194021133Q1272.1922001651694 430.67483194021133 1277.143922542809 434.5305209061994L1277.143922542809 434.5305209061994Q1279.414277466944 436.2528591245088 1279.414277466944 440.44127251903393ZM1351.3218980813613 385.8157501633349L1351.3218980813613 385.8157501633349Q1351.3218980813613 387.73380863372495 1352.535363644261 388.2426812891345Q1353.7292571819526 388.7711259697522 1356.0779002069198 388.7711259697522L1356.0779002069198 388.7711259697522Q1362.0669399205867 388.7711259697522 1366.333641415944 387.73380863372495Q1370.6003429113016 386.69649129769766 1372.8706978354367 384.83714890293186Q1375.1410527595717 382.977806508166 1376.1392260451828 380.9227438613196Q1377.1373993307939 378.8481091892651 1377.1373993307939 376.38203401304935L1377.1373993307939 376.38203401304935Q1377.1373993307939 372.115332517692 1374.1624514991686 369.5318251902279Q1371.2070756927515 366.9483178627638 1364.6700192732587 366.9483178627638L1364.6700192732587 366.9483178627638Q1354.4142780642346 366.9483178627638 1345.4111464685266 373.4266582066321L1345.4111464685266 373.4266582066321Q1342.7297790150224 375.4230047778544 1342.0447581327398 375.4230047778544L1342.0447581327398 375.4230047778544Q1340.8704366202564 375.4230047778544 1340.8704366202564 374.11167908891423L1340.8704366202564 374.11167908891423Q1340.8704366202564 372.3893408706049 1342.8667831914786 369.90369366918105L1342.8667831914786 369.90369366918105Q1346.5854679810104 365.16726356883026 1351.3218980813613 362.1335996615808Q1356.0779002069198 359.0999357543312 1359.9923052485324 358.08219044351205Q1363.9262823153526 357.0448731074848 1367.7623992561325 357.0448731074848L1367.7623992561325 357.0448731074848Q1372.73369365898 357.0448731074848 1376.7263868014247 358.08219044351205Q1380.699507918661 359.0999357543312 1383.8114599267428 361.27243055242604Q1386.9038399096166 363.44492535052086 1388.6261781279259 367.2027541904686Q1390.3485163462353 370.94101100520834 1390.3485163462353 375.9710214836801L1390.3485163462353 375.9710214836801Q1390.3485163462353 386.69649129769766 1380.1319191876273 392.50938278449183Q1369.8957500038114 398.32227427128606 1352.2222112409318 398.32227427128606L1352.2222112409318 398.32227427128606Q1347.2704888632925 398.32227427128606 1341.007440796713 397.77425756546035L1341.007440796713 397.77425756546035Q1337.915060813839 397.57853731337974 1337.915060813839 394.7601656834189L1337.915060813839 394.7601656834189Q1337.915060813839 387.1075038270669 1340.107127637142 383.290958911495Q1342.3187664856528 379.47441399592304 1345.8221589978957 377.4193513490766L1345.8221589978957 377.4193513490766Q1349.2668354345146 375.4230047778544 1351.0478897284484 375.4230047778544L1351.0478897284484 375.4230047778544Q1352.7115118711336 375.4230047778544 1352.7115118711336 377.4780674247008L1352.7115118711336 377.4780674247008Q1352.7115118711336 378.30009248343936 1352.0069189636433 381.5099046175614Q1351.3218980813613 384.7001447264754 1351.3218980813613 385.8157501633349ZM1338.463077519665 404.99633486723496L1338.463077519665 404.99633486723496Q1338.463077519665 401.4342262793678 1341.7707497798274 401.4342262793678L1341.7707497798274 401.4342262793678L1347.6815013926616 401.4342262793678Q1349.4625556865954 401.4342262793678 1350.1867206192935 402.1192471616499Q1350.910885551992 402.8042680439321 1351.3218980813613 405.1333390436914L1351.3218980813613 405.1333390436914Q1354.0032655348655 421.86742059658377 1369.6217416508985 421.86742059658377L1369.6217416508985 421.86742059658377Q1373.5557187177187 421.86742059658377 1377.0003951543376 420.9083913613888Q1380.4254995657482 419.9297901009857 1382.3239860109302 418.7750406137101Q1384.222472456112 417.6007191012264 1385.8273785231731 416.6416898660314Q1387.451856615442 415.66308860562833 1388.2151655985567 415.66308860562833L1388.2151655985567 415.66308860562833Q1389.7809276152016 415.66308860562833 1389.7809276152016 417.38542682393773L1389.7809276152016 417.38542682393773Q1389.7809276152016 418.8337566893343 1388.2151655985567 421.1041116134694Q1386.6298315567037 423.37446653760446 1383.6940277754945 425.82096968861214Q1380.7777960194935 428.2674728396198 1375.6499254149812 430.00938308313727Q1370.5220548104692 431.77086535186277 1364.5330150968025 431.77086535186277L1364.5330150968025 431.77086535186277Q1352.1439231400996 431.77086535186277 1345.3132863424862 424.31392374759145Q1338.463077519665 416.837410118112 1338.463077519665 404.99633486723496ZM1441.059633660322 414.0190384881512L1441.059633660322 414.0190384881512Q1441.059633660322 406.65995700992016 1437.0277964674615 403.4892889262142Q1432.9959592746009 400.31862084250827 1425.4411575442891 399.63359996022615L1425.4411575442891 399.63359996022615Q1418.7670969483402 399.02686717877623 1413.932806721949 397.36324503609103Q1409.118088520766 395.7191949186139 1406.4367210672617 393.35097986843846Q1403.7553536137575 390.963192793055 1402.5614600760655 388.2426812891345Q1401.3479945131658 385.522169785214 1401.3479945131658 382.37107372671613L1401.3479945131658 382.37107372671613Q1401.3479945131658 379.141689567386 1404.655666773328 376.6168983155461Q1407.9633390334905 374.11167908891423 1410.2336939576255 374.11167908891423L1410.2336939576255 374.11167908891423Q1411.7994559742704 374.11167908891423 1412.3670447053041 376.24502983659295L1412.3670447053041 376.24502983659295Q1412.91506141113 378.5741008363522 1413.5022221673717 380.15943487820516Q1414.0893829236136 381.74476892005816 1415.146272284849 382.95823448295795Q1416.203161646084 384.1521280206497 1417.2796230325275 384.87629295334796Q1418.3365123937629 385.60045788604623 1420.58729529269 386.18761864228804Q1422.818506166409 386.7747793985299 1424.8539967880474 387.1075038270669Q1426.8699153844777 387.45980028081203 1430.6668882748415 387.9491009110136L1430.6668882748415 387.9491009110136Q1436.6559279885082 388.6928378689199 1440.8443413830335 390.65004038972603Q1445.0523268027666 392.62681493574024 1447.1856775504452 395.5039026413252Q1449.3190282981238 398.4005623721183 1450.1997694324866 401.492942354992Q1451.1000825920576 404.58532233786565 1451.1000825920576 408.51929940468597L1451.1000825920576 408.51929940468597Q1451.1000825920576 412.92300507649975 1449.6126086762447 416.9352702441523Q1448.1447067856402 420.96710743701294 1446.0113560379614 423.4723266636448Q1443.878005290283 425.9971179154847 1441.666366441772 427.4650198060893Q1439.474299618469 428.95249372190193 1437.810677475784 428.95249372190193L1437.810677475784 428.95249372190193Q1436.7146440641322 428.95249372190193 1436.7146440641322 427.9151763858747L1436.7146440641322 427.9151763858747Q1436.7146440641322 427.5041638565054 1437.810677475784 425.8601137390283L1437.810677475784 425.8601137390283Q1441.059633660322 420.61481098326783 1441.059633660322 414.0190384881512ZM1445.6003435085922 361.03756624992934L1445.6003435085922 361.03756624992934Q1447.7336942562708 362.6816163674065 1447.7336942562708 364.26695040925944L1447.7336942562708 364.26695040925944Q1447.7336942562708 365.98928862756884 1444.876178575894 368.49450785420066Q1442.018662895517 371.0192991060406 1439.6700198705498 371.0192991060406L1439.6700198705498 371.0192991060406Q1438.9849989882678 371.0192991060406 1438.436982282442 370.84315087916804Q1437.888965576616 370.6670026522955 1436.8125041901726 370.21684607251007Q1435.7556148289373 369.76668949272465 1435.266314198736 369.62968531626825L1435.266314198736 369.62968531626825Q1428.8075458800758 366.9483178627638 1423.6405312251475 366.9483178627638L1423.6405312251475 366.9483178627638Q1413.932806721949 366.9483178627638 1406.5737252437182 371.43031163540985L1406.5737252437182 371.43031163540985Q1406.1039966387248 371.7043199883227 1405.2428275295697 372.2523366941484Q1404.3816584204153 372.80035339997414 1403.8532137397974 373.11350580330316Q1403.344341084388 373.4266582066321 1402.9920446306428 373.4266582066321L1402.9920446306428 373.4266582066321Q1402.0330153954478 373.4266582066321 1402.0330153954478 372.2523366941484L1402.0330153954478 372.2523366941484Q1402.0330153954478 370.74529075312773 1404.1663661431267 368.0639232996233L1404.1663661431267 368.0639232996233Q1413.247785839667 357.0448731074848 1429.7078590396463 357.0448731074848L1429.7078590396463 357.0448731074848Q1434.033276610628 357.0448731074848 1438.5739864588982 358.08219044351205Q1443.1146963071683 359.0999357543312 1445.6003435085922 361.03756624992934ZM1414.4221073521508 418.34445605913277L1414.4221073521508 418.34445605913277Q1416.6924622762858 419.7340698489051 1417.5536313854404 420.20379845389857Q1418.414800494595 420.6930990841001 1420.5090071918578 421.28025984034196Q1422.6032138891203 421.86742059658377 1425.0105729897118 421.86742059658377L1425.0105729897118 421.86742059658377Q1428.0442368969611 421.86742059658377 1430.9996127033785 420.96710743701294Q1433.974560535004 420.0667942774421 1434.1115647114602 420.0667942774421L1434.1115647114602 420.0667942774421Q1435.677326728105 420.0667942774421 1435.677326728105 421.7304164201273L1435.677326728105 421.7304164201273Q1435.677326728105 422.82644983177875 1434.5812933164539 424.45092792404785Q1433.4852599048022 426.0558339911089 1431.48891333358 427.73902815900215Q1429.492566762358 429.4222223268954 1426.0087462753231 430.5965438393791Q1422.544497813496 431.77086535186277 1418.414800494595 431.77086535186277L1418.414800494595 431.77086535186277Q1412.641053058217 431.77086535186277 1407.3370342268324 429.0894978983584Q1402.0330153954478 426.408130444854 1402.0330153954478 423.5897588148931L1402.0330153954478 423.5897588148931Q1402.0330153954478 421.4564080672145 1404.8905310758248 419.20562516828744Q1407.7480467562018 416.9744142945684 1410.370698134082 416.9744142945684L1410.370698134082 416.9744142945684Q1412.0930363523914 416.9744142945684 1414.4221073521508 418.34445605913277Z " fill="white" transform="matrix(0.6029908108675747,0,0,0.6029908108675747,0,61.1017356393629)"/></g></svg>